# xmcd
#
# Track frame offsets: 
#        150
#        14867
#        56594
#        91759
#        107876
#        121488
#        135196
#        171358
#        200573
#        216980
#
# Disc length: 3224 seconds
#
# Revision: 1
# Processed by: cddbd v1.5.2PL0 Copyright (c) Steve Scherf et al.
# Submitted via: ExactAudioCopy v1.3
#
DISCID=910c960a
DTITLE=Jimi Hendrix - 10 Tracks Performed Live At The Royal Albert Hal
DTITLE=l
DYEAR=2006
DGENRE=Classic Rock
TTITLE0=The Jimi Hendrix Experience - Little Wing (live 24-02-1969)
TTITLE1=The Jimi Hendrix Experience - Voodoo Chile (live 24-02-1969)
TTITLE2=The Jimi Hendrix Experience - Room Full of Mirrors (live 24-02
TTITLE2=1969)
TTITLE3=The Jimi Hendrix Experience - Fire (live 24-02-1969)
TTITLE4=The Jimi Hendrix Experience - Purple Haze (live 24-02-1969)
TTITLE5=The Jimi Hendrix Experience - Wild Thing (live 24-02-1969)
TTITLE6=The Jimi Hendrix Experience - Bleeding Heart (live 24-02-1969)
TTITLE7=The Jimi Hendrix Experience - Sunshine of Your Love (live 24-0
TTITLE7=2-1969)
TTITLE8=The Jimi Hendrix Experience - Hey Joe (live 24-02-1969)
TTITLE9=The Jimi Hendrix Experience - Foxey Lady (live 24-02-1969)
EXTD=
EXTT0=
EXTT1=
EXTT2=
EXTT3=
EXTT4=
EXTT5=
EXTT6=
EXTT7=
EXTT8=
EXTT9=
PLAYORDER=
